<svg width="429" height="405" viewBox="0 0 429 405" fill="none" xmlns="http://www.w3.org/2000/svg">
<path d="M234.963 253.39L194.384 207.95L193.97 263.191L206.183 298.624L84.7687 319.676L79.6234 223.876L70.8783 150.296C69.804 141.287 74.9492 132.674 83.3928 129.356L116.809 116.201L163.871 124.833L182.793 132.033C190.747 135.048 197.834 139.986 203.431 146.376L260.425 211.549" fill="#EC615B"/>
<path d="M191.538 197.075C191.557 196.886 194.215 197.282 198.399 196.585C202.545 195.944 208.275 193.908 213.024 189.536C217.774 185.144 220.243 179.603 221.223 175.532C222.241 171.424 222.071 168.728 222.26 168.728C222.316 168.728 222.41 169.388 222.429 170.594C222.448 171.801 222.335 173.553 221.901 175.683C221.072 179.905 218.622 185.691 213.684 190.252C208.746 194.794 202.771 196.773 198.493 197.263C196.345 197.527 194.592 197.508 193.386 197.376C192.179 197.282 191.52 197.131 191.538 197.075Z" fill="white"/>
<path d="M195.082 260.835C195.365 260.835 195.44 241.686 195.251 218.089C195.063 194.474 194.667 175.344 194.384 175.344C194.102 175.344 194.026 194.474 194.215 218.089C194.422 241.705 194.799 260.835 195.082 260.835Z" fill="#263238"/>
<path d="M190.634 274.876L117.261 245.343C111.343 242.968 107.291 237.427 106.801 231.075L101.43 160.737C101.43 160.737 102.07 130.826 83.374 129.375L72.7441 133.559C59.0044 140.853 55.593 160.85 57.4778 176.305C60.1352 198.243 61.2473 229.304 64.2251 248.339C66.6564 263.926 75.59 277.628 90.8375 281.642L181.191 301.206L190.634 274.876Z" fill="#EC615B"/>
<path d="M102.504 171.461C102.542 171.461 102.617 172.008 102.73 173.063C102.843 174.213 103.013 175.758 103.201 177.7C103.578 181.827 104.106 187.632 104.747 194.756C105.369 201.994 106.104 210.551 106.914 220.068C107.122 222.443 107.329 224.893 107.536 227.381C107.762 229.869 107.913 232.432 108.479 234.901C109.025 237.389 110.213 239.726 112.116 241.498C114.02 243.269 116.394 244.589 118.882 245.701C139.105 254.446 157.764 261.683 171.297 266.753C178.006 269.222 183.472 271.239 187.373 272.671C189.201 273.35 190.653 273.877 191.746 274.273C192.745 274.65 193.254 274.857 193.254 274.895C193.235 274.933 192.707 274.782 191.689 274.462C190.596 274.103 189.126 273.632 187.26 273.029C183.415 271.748 177.893 269.844 171.07 267.394C157.463 262.494 138.785 255.369 118.486 246.586C115.961 245.437 113.492 244.099 111.456 242.195C109.402 240.31 108.083 237.709 107.536 235.108C106.952 232.508 106.82 229.926 106.594 227.438C106.387 224.95 106.198 222.5 106.01 220.125C105.274 210.607 104.615 202.032 104.049 194.794C103.522 187.651 103.107 181.846 102.806 177.719C102.692 175.777 102.598 174.213 102.523 173.063C102.485 172.027 102.466 171.461 102.504 171.461Z" fill="#263238"/>
<path d="M60.4746 209.702C60.5123 209.702 60.55 210.023 60.6253 210.645C60.6819 211.38 60.7761 212.266 60.8704 213.359C61.0965 215.865 61.3792 219.239 61.7373 223.348C62.1331 227.551 62.642 232.564 63.377 238.105C64.1309 243.627 65.0168 249.734 66.6942 255.916C67.4858 259.045 68.5977 261.928 70.2751 264.416C71.9525 266.923 73.8184 269.166 75.7597 271.144C79.6422 275.102 83.7887 278.024 87.5016 279.946C95.0028 283.848 100.468 283.904 100.393 284.168C100.393 284.206 100.054 284.187 99.4319 284.149C98.8099 284.111 97.8864 284.036 96.7179 283.791C94.3808 283.376 91.0071 282.453 87.1811 280.568C83.3552 278.683 79.0957 275.781 75.1189 271.785C73.1399 269.769 71.2175 267.507 69.4836 264.963C67.7308 262.399 66.5434 259.327 65.7518 256.199C64.0556 249.922 63.1886 243.797 62.4912 238.237C61.8127 232.677 61.3604 227.645 61.0589 223.423C60.7573 219.201 60.5876 215.771 60.4934 213.415C60.4746 212.322 60.4557 211.417 60.4369 210.682C60.418 210.023 60.4369 209.702 60.4746 209.702Z" fill="#263238"/>
<path d="M91.8364 258.913C91.7422 258.894 92.0437 257.311 93.1745 255.011C94.2865 252.712 96.3409 249.715 99.3376 247.152C102.334 244.589 105.614 243.024 108.064 242.289C110.533 241.535 112.116 241.479 112.135 241.573C112.173 241.743 110.627 242.044 108.29 242.93C105.953 243.816 102.862 245.418 99.9784 247.868C97.0948 250.337 95.0216 253.145 93.7965 255.313C92.5338 257.499 91.9872 258.969 91.8364 258.913Z" fill="#263238"/>
<path d="M106.273 205.424C106.273 205.405 106.443 205.481 106.745 205.631C107.084 205.82 107.517 206.046 108.064 206.329C109.232 206.875 110.966 207.761 113.303 208.553C117.921 210.155 125.14 211.776 133.866 210.305C142.479 208.892 152.487 203.822 159.423 194.417C162.853 189.781 165.51 184.07 166.114 177.794C166.415 174.684 166.17 171.442 165.133 168.389C164.135 165.336 162.288 162.528 159.837 160.304C157.406 158.08 154.391 156.515 151.224 156.12C148.096 155.629 144.76 156.459 142.592 158.551C141.537 159.606 140.896 161.001 140.915 162.452C140.915 163.903 141.461 165.317 142.328 166.486C144.062 168.86 147.002 169.972 149.792 170.387C155.503 171.179 161.119 170.142 165.831 168.088C170.561 166.033 174.425 162.961 177.196 159.587C179.985 156.195 181.7 152.52 182.718 149.203C183.755 145.867 184.056 142.832 184.113 140.382C184.15 137.913 183.886 136.01 183.698 134.728C183.585 134.125 183.51 133.654 183.434 133.277C183.378 132.956 183.359 132.768 183.378 132.768C183.378 132.768 184.414 135.388 184.508 140.382C184.508 142.87 184.263 145.942 183.265 149.372C182.266 152.765 180.569 156.534 177.742 160.04C174.934 163.527 170.995 166.693 166.17 168.841C161.345 170.971 155.597 172.064 149.679 171.292C146.757 170.877 143.572 169.727 141.593 167.07C140.632 165.788 139.972 164.167 139.972 162.471C139.954 160.775 140.726 159.097 141.932 157.891C144.383 155.516 148.02 154.668 151.375 155.177C154.767 155.611 157.971 157.269 160.516 159.606C163.079 161.943 165.02 164.902 166.076 168.106C167.15 171.31 167.414 174.684 167.094 177.907C166.453 184.39 163.701 190.252 160.177 194.983C153.052 204.557 142.781 209.665 133.998 211.003C125.102 212.416 117.808 210.645 113.19 208.93C108.479 207.12 106.273 205.424 106.273 205.424Z" fill="white"/>
<path d="M58.2129 186.671C58.1752 186.633 58.571 186.087 59.4191 185.163C60.2672 184.259 61.5676 183.015 63.377 181.714C66.9391 179.038 72.8384 176.607 79.6045 175.966C82.997 175.608 86.2765 175.758 89.1601 176.362C92.0626 176.965 94.5504 177.945 96.5293 178.944C98.5083 179.943 100.016 180.941 101.015 181.676C102.014 182.411 102.523 182.864 102.485 182.92C102.391 183.071 100.186 181.413 96.2278 179.584C92.3076 177.719 86.3141 176.154 79.6987 176.946C73.0645 177.568 67.3349 179.829 63.754 182.298C60.1353 184.711 58.3448 186.803 58.2129 186.671Z" fill="white"/>
<path d="M69.9547 136.368C70.1055 136.198 71.8395 138.61 75.8916 140.684C77.8894 141.72 80.4904 142.587 83.4494 142.908C86.4084 143.228 89.7444 142.889 92.9107 141.607C96.0582 140.269 98.6591 138.158 100.525 135.84C102.41 133.522 103.616 131.09 104.313 128.923C105.708 124.588 105.237 121.667 105.463 121.667C105.52 121.667 105.67 122.364 105.708 123.665C105.765 124.965 105.614 126.869 104.973 129.111C104.351 131.354 103.164 133.936 101.241 136.386C99.3376 138.818 96.6236 141.079 93.2876 142.493C89.9328 143.85 86.4272 144.17 83.3551 143.793C80.2642 143.417 77.6067 142.436 75.5712 141.287C73.5357 140.137 72.0845 138.893 71.1987 137.951C70.294 137.008 69.8982 136.405 69.9547 136.368Z" fill="white"/>
<path d="M133.885 252.033C133.847 252.033 133.904 251.562 134.036 250.639C134.243 249.753 134.526 248.415 135.336 246.85C136.825 243.684 140.5 239.726 146.324 237.314C152.053 234.732 159.95 234.242 167.885 236.541C171.768 237.691 176.216 239.123 179.118 242.911C180.551 244.777 181.022 247.548 179.947 249.809C178.911 252.09 176.875 253.654 174.727 254.747C172.54 255.822 170.166 256.425 167.772 256.462C165.416 256.5 162.947 255.916 161.1 254.389C159.234 252.881 158.254 250.563 158.122 248.339C157.953 246.096 158.405 243.948 159.121 241.988C162.25 234.147 168.564 229.153 174.237 226.684C180.004 224.158 185.225 223.894 188.674 224.196C192.142 224.554 193.951 225.308 193.951 225.308C193.913 225.44 192.085 224.818 188.655 224.573C185.244 224.384 180.136 224.761 174.538 227.306C171.749 228.569 168.884 230.397 166.302 232.885C163.739 235.372 161.421 238.539 159.969 242.27C159.291 244.136 158.876 246.191 159.046 248.245C159.197 250.281 160.064 252.297 161.703 253.617C163.324 254.955 165.548 255.501 167.753 255.445C169.977 255.407 172.22 254.823 174.274 253.824C176.291 252.806 178.157 251.336 179.043 249.357C179.966 247.416 179.589 245.098 178.327 243.42C177.083 241.705 175.273 240.48 173.426 239.519C171.56 238.576 169.563 237.936 167.621 237.351C159.837 235.052 152.185 235.467 146.569 237.898C140.858 240.178 137.202 243.929 135.656 246.963C134.054 250.073 134.017 252.071 133.885 252.033Z" fill="white"/>
<path d="M85.0326 278.514C84.9949 278.325 87.8219 278.099 92.0626 276.572C96.2844 275.102 101.882 272.068 106.481 266.998C111.079 261.909 113.511 256.029 114.566 251.675C115.641 247.303 115.603 244.476 115.791 244.476C115.848 244.476 115.923 245.173 115.904 246.455C115.886 247.736 115.716 249.583 115.264 251.826C114.378 256.293 111.965 262.399 107.235 267.639C102.504 272.878 96.6613 275.894 92.3076 277.213C90.1213 277.892 88.2932 278.25 87.0304 278.401C85.7488 278.57 85.0326 278.57 85.0326 278.514Z" fill="white"/>
<path d="M61.2472 223.838C61.2472 223.8 61.5488 223.687 62.1331 223.48C62.7173 223.291 63.6032 223.009 64.7529 222.726C67.0334 222.179 70.4636 221.407 74.7419 221.708C76.8716 221.878 79.2087 222.368 81.5269 223.385C83.8452 224.403 86.1446 226.024 87.8597 228.361C89.5371 230.698 90.5737 233.733 90.3286 236.918C90.2156 238.501 89.7255 240.084 88.8774 241.498C88.0104 242.892 86.7288 244.155 85.0326 244.721C83.3552 245.248 81.395 244.984 80.0757 243.741C78.7753 242.478 78.4548 240.706 78.3606 239.161C78.2475 236.032 78.926 233.035 80.0945 230.434C82.4316 225.176 86.7665 221.727 90.7998 220.276C94.852 218.768 98.4518 218.881 100.77 219.296C101.939 219.503 102.843 219.767 103.427 219.974C104.012 220.2 104.313 220.332 104.294 220.351C104.257 220.445 103.032 219.955 100.713 219.673C98.4141 219.39 94.9274 219.409 91.0448 220.935C87.2 222.405 83.1101 225.76 80.9238 230.811C79.8307 233.299 79.2088 236.164 79.3218 239.123C79.3972 240.555 79.7365 242.082 80.7354 243.043C81.7343 243.986 83.3363 244.231 84.731 243.797C86.1257 243.345 87.2753 242.252 88.0481 241.008C88.8208 239.745 89.2543 238.294 89.3863 236.842C89.6313 233.94 88.6889 231.075 87.1434 228.889C85.5603 226.703 83.3929 225.138 81.2066 224.121C79.0014 223.103 76.7586 222.594 74.6854 222.387C70.5201 222.01 67.1276 222.65 64.8283 223.084C62.5478 223.574 61.2849 223.913 61.2472 223.838Z" fill="white"/>
<g opacity="0.3">
<g opacity="0.3">
<path opacity="0.3" d="M169.544 266.489C161.703 262.06 154.032 258.649 145.815 254.917C137.616 251.185 129.569 246.398 124.216 239.161C114.095 225.515 115.245 205.82 104.879 192.344C105.557 201.391 106.236 210.456 106.914 219.503C107.536 227.796 106.255 236.013 111.607 241.648C116.112 246.398 124.895 250.036 131.114 252.09C143.61 256.255 157.067 262.38 169.544 266.489Z" fill="black"/>
</g>
</g>
<path d="M297.027 369.867C297.027 369.867 358.412 386.848 360.881 387.715C364.575 389.015 363.953 402.567 358.205 402.359C355.491 402.265 311.049 404.018 305.433 403.66C299.816 403.302 282.891 396.63 282.891 396.63L297.027 369.867Z" fill="#EC615B"/>
<path d="M322.602 393.294C322.904 393.331 323.319 390.09 325.316 386.697C327.258 383.286 329.84 381.288 329.651 381.043C329.538 380.798 326.504 382.532 324.412 386.188C322.301 389.807 322.339 393.313 322.602 393.294Z" fill="#263238"/>
<path d="M316.194 390.391C316.496 390.448 317.118 387.545 318.758 384.341C320.36 381.118 322.32 378.894 322.094 378.687C321.924 378.48 319.53 380.496 317.834 383.889C316.119 387.263 315.949 390.372 316.194 390.391Z" fill="#263238"/>
<path d="M310.201 388.789C310.503 388.77 310.276 385.698 311.633 382.306C312.934 378.875 315.195 376.783 314.969 376.557C314.837 376.331 312.086 378.216 310.672 381.929C309.221 385.604 309.956 388.865 310.201 388.789Z" fill="#263238"/>
<path d="M311.294 380.854C311.407 380.873 311.954 379.177 311.954 376.293C311.954 374.861 311.784 373.146 311.332 371.28C311.106 370.357 310.804 369.395 310.427 368.434C310.22 367.944 309.994 367.379 309.447 366.926C308.882 366.417 307.826 366.512 307.336 367.039C306.771 367.529 306.601 368.227 306.526 368.773C306.469 369.339 306.431 369.866 306.45 370.394C306.469 371.45 306.601 372.467 306.827 373.391C307.28 375.257 308.015 376.84 308.712 378.084C310.144 380.572 311.388 381.853 311.464 381.778C311.596 381.684 310.578 380.251 309.353 377.745C308.75 376.501 308.128 374.955 307.751 373.184C307.562 372.298 307.449 371.355 307.449 370.375C307.468 369.433 307.468 368.246 308.015 367.793C308.316 367.548 308.58 367.529 308.825 367.718C309.089 367.925 309.315 368.34 309.504 368.792C309.881 369.716 310.201 370.62 310.427 371.506C310.917 373.278 311.143 374.918 311.238 376.293C311.407 379.102 311.124 380.836 311.294 380.854Z" fill="#263238"/>
<path d="M311.219 380.232C311.256 380.119 309.767 379.611 307.261 379.592C306.017 379.592 304.509 379.724 302.907 380.119C302.115 380.327 301.248 380.534 300.4 381.043C299.552 381.476 298.685 382.645 299.006 383.851C299.27 385.001 300.25 385.792 301.211 386.037C302.191 386.301 303.133 386.207 303.963 386.037C305.64 385.642 306.959 384.812 307.958 384.077C309.918 382.532 310.879 381.345 310.804 381.269C310.691 381.137 309.541 382.155 307.525 383.493C306.526 384.134 305.263 384.831 303.755 385.114C303.001 385.265 302.21 385.302 301.475 385.076C300.758 384.869 300.155 384.322 299.986 383.625C299.816 382.947 300.231 382.306 300.89 381.91C301.55 381.495 302.36 381.269 303.114 381.043C304.641 380.609 306.055 380.402 307.242 380.327C309.673 380.157 311.181 380.402 311.219 380.232Z" fill="#263238"/>
<path d="M332.045 393.953C332.347 393.916 332.045 391.296 333.251 388.412C334.401 385.51 336.455 383.851 336.248 383.606C336.154 383.361 333.572 384.812 332.29 388.016C330.971 391.22 331.781 394.066 332.045 393.953Z" fill="#263238"/>
<path d="M289.205 396.78C289.186 396.837 290.016 397.233 291.58 397.892C293.163 398.496 295.462 399.325 298.403 400.003C304.264 401.473 312.651 402.322 321.83 402.227C331.027 402.133 339.32 401.7 345.332 401.473C348.178 401.323 350.553 401.191 352.438 401.096C354.115 400.983 355.039 400.889 355.039 400.814C355.039 400.738 354.096 400.701 352.419 400.701C350.534 400.72 348.141 400.738 345.295 400.757C339.075 400.87 330.876 401.04 321.811 401.21C312.651 401.304 304.396 400.588 298.535 399.306C292.692 398.1 289.281 396.592 289.205 396.78Z" fill="#263238"/>
<path d="M287.396 398.194C287.471 398.345 289.167 397.346 291.995 396.102C294.803 394.896 299.006 393.463 303.604 394.179C308.222 394.896 311.501 397.987 313.65 400.154C315.799 402.397 317.061 403.867 317.193 403.773C317.288 403.697 316.232 402.058 314.197 399.664C313.16 398.477 311.841 397.101 310.126 395.857C308.429 394.613 306.243 393.539 303.793 393.162C298.836 392.408 294.482 394.066 291.712 395.442C288.866 396.894 287.32 398.081 287.396 398.194Z" fill="#263238"/>
<path d="M231.872 352.923C231.872 352.923 173.784 390.957 171.692 392.521C168.564 394.877 172.145 406.148 177.573 404.187C180.136 403.264 228.875 389.713 234.114 387.658C239.354 385.623 253.471 374.126 253.471 374.126L231.872 352.923Z" fill="#EC615B"/>
<path d="M214.626 383.003C214.89 382.946 213.854 379.592 210.744 376.783C207.653 373.938 204.223 373.221 204.204 373.485C204.091 373.768 207.182 374.88 210.047 377.556C212.968 380.176 214.344 383.135 214.626 383.003Z" fill="#263238"/>
<path d="M219.847 378.291C220.092 378.197 218.961 375.276 216.304 372.581C213.665 369.867 210.763 368.679 210.669 368.924C210.518 369.188 213.062 370.715 215.569 373.297C218.094 375.86 219.564 378.442 219.847 378.291Z" fill="#263238"/>
<path d="M225.068 374.936C225.332 374.936 225.049 371.619 222.523 368.547C220.036 365.456 216.85 364.476 216.794 364.74C216.662 365.023 219.432 366.323 221.713 369.188C224.069 372.034 224.766 375.012 225.068 374.936Z" fill="#263238"/>
<path d="M221.619 367.718C221.77 367.643 220.978 366.078 220.299 363.364C219.96 362.007 219.696 360.386 219.621 358.558C219.583 357.653 219.602 356.692 219.678 355.693C219.715 355.222 219.791 354.751 219.998 354.468C220.186 354.204 220.431 354.148 220.79 354.28C221.449 354.544 221.807 355.674 222.109 356.56C222.41 357.484 222.599 358.426 222.674 359.331C222.863 361.14 222.712 362.799 222.523 364.175C222.109 366.926 221.562 368.604 221.732 368.66C221.845 368.698 222.637 367.115 223.24 364.307C223.541 362.912 223.749 361.178 223.617 359.255C223.541 358.294 223.372 357.295 223.07 356.278C222.919 355.769 222.731 355.279 222.505 354.751C222.26 354.242 221.883 353.639 221.204 353.337C220.582 352.998 219.546 353.206 219.169 353.884C218.773 354.487 218.735 355.09 218.697 355.618C218.622 356.655 218.622 357.653 218.697 358.615C218.829 360.518 219.188 362.196 219.621 363.572C220.488 366.304 221.525 367.774 221.619 367.718Z" fill="#263238"/>
<path d="M221.506 367.096C221.581 367.247 222.938 366.549 225.275 365.984C226.444 365.701 227.857 365.456 229.44 365.419C230.232 365.4 231.08 365.381 231.834 365.569C232.588 365.739 233.191 366.21 233.229 366.926C233.285 367.661 232.871 368.359 232.249 368.773C231.627 369.207 230.835 369.395 230.081 369.49C228.555 369.659 227.16 369.395 225.991 369.075C223.673 368.415 222.26 367.793 222.203 367.963C222.165 368.076 223.428 368.905 225.784 369.772C226.953 370.187 228.46 370.564 230.175 370.432C231.023 370.357 231.947 370.168 232.795 369.603C233.643 369.075 234.341 368.019 234.228 366.851C234.171 365.588 232.984 364.759 232.06 364.608C231.08 364.382 230.213 364.457 229.384 364.495C227.725 364.608 226.255 364.929 225.068 365.305C222.712 366.059 221.449 367.002 221.506 367.096Z" fill="#263238"/>
<path d="M184.98 402.076C185.055 402.171 185.96 401.492 186.393 399.834C186.883 398.213 186.582 395.706 185.3 393.539C184.697 392.427 184 391.484 183.359 390.636C182.718 389.788 182.058 389.034 181.38 388.525C180.701 387.998 180.004 387.771 179.533 387.753C179.043 387.734 178.798 387.847 178.798 387.903C178.798 388.054 179.834 387.979 180.909 389.072C181.455 389.6 182.002 390.316 182.586 391.183C183.189 392.05 183.83 392.992 184.395 394.01C185.564 396.064 185.922 398.175 185.677 399.683C185.489 401.191 184.848 401.982 184.98 402.076Z" fill="#263238"/>
<path d="M205.844 386.49C206.107 386.509 206.032 383.568 203.789 380.93C201.584 378.254 198.7 377.65 198.682 377.914C198.569 378.197 201.019 379.158 202.998 381.571C205.033 383.964 205.542 386.565 205.844 386.49Z" fill="#263238"/>
<path d="M247.515 376.199C247.458 376.143 246.573 376.802 244.971 377.952C243.331 379.083 240.937 380.666 237.809 382.343C234.68 384.021 230.835 385.755 226.425 387.413C222.033 389.053 217.095 390.599 211.875 392.106C201.433 395.122 191.972 397.874 185.13 399.928C181.851 400.927 179.137 401.775 177.064 402.416C175.16 403.019 174.124 403.396 174.143 403.452C174.161 403.528 175.236 403.283 177.177 402.793C179.288 402.227 182.021 401.511 185.338 400.625C192.217 398.759 201.697 396.121 212.157 393.105C217.378 391.597 222.335 390.014 226.745 388.299C231.156 386.584 235.019 384.756 238.129 382.984C241.239 381.213 243.614 379.516 245.178 378.272C246.742 376.991 247.553 376.237 247.515 376.199Z" fill="#263238"/>
<path d="M249.663 376.972C249.701 376.859 247.854 376.18 244.744 375.672C241.672 375.181 237.017 374.936 232.531 377.16C230.307 378.254 228.555 379.95 227.311 381.646C226.048 383.361 225.219 385.057 224.597 386.509C223.372 389.411 222.863 391.296 222.976 391.334C223.127 391.39 223.88 389.6 225.256 386.81C226.632 384.115 228.818 380.157 233.002 378.065C237.187 375.992 241.616 376.086 244.65 376.369C247.722 376.708 249.626 377.123 249.663 376.972Z" fill="#263238"/>
<path d="M352.588 260.175C352.588 260.175 370.022 266.395 370.079 285.94C370.211 323.37 294.463 364.627 294.463 364.627L193.649 297.813L187.336 295.25C187.317 295.25 323.432 244.136 352.588 260.175Z" fill="#263238"/>
<path d="M244.707 331.55C244.744 331.607 245.687 330.966 247.326 329.759C248.985 328.553 251.341 326.782 254.225 324.558C259.992 320.091 267.851 313.777 276.295 306.521C284.738 299.265 292.183 292.461 297.46 287.429C300.099 284.922 302.21 282.849 303.642 281.397C305.075 279.946 305.847 279.117 305.791 279.079C305.734 279.023 304.886 279.758 303.359 281.115C301.72 282.604 299.552 284.545 296.951 286.901C291.542 291.782 284.041 298.511 275.597 305.748C267.154 312.985 259.389 319.393 253.735 323.992C251.021 326.216 248.759 328.044 247.044 329.458C245.517 330.758 244.669 331.493 244.707 331.55Z" fill="#455A64"/>
<path d="M324.129 274.16C324.167 273.915 319.662 273.463 314.423 275.046C309.146 276.572 305.621 279.4 305.791 279.588C305.96 279.852 309.636 277.515 314.724 276.045C319.775 274.499 324.129 274.48 324.129 274.16Z" fill="#455A64"/>
<path d="M315.441 268.261C315.346 268.016 312.123 269.448 309.466 272.765C306.79 276.064 306.073 279.513 306.337 279.55C306.639 279.645 307.732 276.516 310.276 273.406C312.764 270.259 315.61 268.525 315.441 268.261Z" fill="#455A64"/>
<path d="M358.13 386.773C358.186 386.659 356.923 386.414 355.529 387.564C354.153 388.657 352.984 390.862 352.607 393.407C352.23 395.989 352.796 398.364 353.531 399.853C354.247 401.379 355.02 402.095 355.114 402.039C355.246 401.945 354.699 401.096 354.209 399.589C353.7 398.1 353.286 395.913 353.625 393.558C353.964 391.202 354.926 389.166 356.019 388.092C357.093 386.98 358.148 386.942 358.13 386.773Z" fill="#263238"/>
<path d="M329.406 199.016L293.483 290.048L138.86 292.574L136.014 284.206L190.2 282.246L216.247 201.485L329.406 199.016Z" fill="#455A64"/>
<path d="M257.184 238.426C259.163 237.087 262.838 237.615 264.628 239.217C266.419 240.819 266.984 243.59 266.08 245.814C265.175 248.038 262.894 249.583 260.501 249.715C257.956 249.847 255.299 248.264 254.602 245.814C253.885 243.364 254.677 239.726 257.184 238.426Z" fill="#EBEBEB"/>
<path d="M304 369.169C304 369.169 161.553 275.724 155.71 273.783C149.886 271.842 135.788 262.607 121.691 266.489C107.593 270.372 94.9651 283.018 88.6324 301.489C85.0137 312.043 83.3174 330.042 82.5259 343.556C81.5647 359.708 86.5592 375.803 97.1325 388.054C101.939 393.633 107.857 398.477 114.887 400.663C116.376 401.115 117.902 401.53 119.485 401.869C146.418 407.712 174.105 395.612 189.22 372.581L192.537 367.529C192.537 367.529 285.718 401.756 287.188 401.285L304 369.169Z" fill="#263238"/>
<path d="M127.778 343.443C127.778 343.443 128.042 343.575 128.551 343.782C129.116 344.008 129.889 344.31 130.888 344.705C132.999 345.516 136.014 346.684 139.916 348.173C147.832 351.151 159.272 355.467 173.483 360.82C187.731 366.135 204.826 372.467 223.975 379.441C243.142 386.414 264.364 394.048 287.057 401.737L287.471 401.869L287.678 401.473C291.241 394.67 294.991 387.508 298.798 380.214C300.74 376.501 302.662 372.807 304.471 369.377L304.698 368.962L304.302 368.717C261.518 341.558 223.258 317.264 195.647 299.736C181.851 291.028 170.731 284.017 163.004 279.155C159.178 276.761 156.2 274.914 154.145 273.614C153.165 273.01 152.393 272.539 151.827 272.2C151.3 271.88 151.017 271.748 151.017 271.748C151.017 271.748 151.262 271.936 151.771 272.294C152.317 272.652 153.071 273.161 154.032 273.802C156.068 275.121 159.008 277.044 162.796 279.494C170.486 284.432 181.549 291.537 195.27 300.358C222.844 317.961 261.047 342.35 303.755 369.603L303.586 368.943C301.776 372.392 299.854 376.067 297.913 379.78C294.105 387.055 290.355 394.236 286.793 401.04L287.415 400.795C264.741 393.143 243.5 385.529 224.333 378.612C205.184 371.638 188.071 365.419 173.766 360.217C159.517 354.996 148.039 350.774 140.104 347.872C136.184 346.439 133.131 345.327 131.001 344.555C129.983 344.197 129.211 343.914 128.645 343.725C128.061 343.518 127.778 343.443 127.778 343.443Z" fill="#455A64"/>
<path d="M142.554 11.6363C144.986 5.07748 150.357 2.21271 157.161 0.572992C163.965 -1.06672 171.542 0.874545 176.706 5.60521C180.155 8.77155 182.68 13.1441 186.959 15.0666C193.989 18.2517 202.979 13.5965 209.632 17.4978C213.571 19.7972 215.512 25.0368 214.004 29.3528C212.497 33.6688 207.728 36.5713 203.224 35.9305C207.804 38.0979 208.652 44.9772 205.504 48.9351C202.357 52.893 196.533 53.9673 191.652 52.5915C186.789 51.2156 182.737 47.8231 179.307 44.1102C175.858 40.3973 172.861 36.2886 169.129 32.8584C165.397 29.4282 160.761 26.6765 155.71 26.488C148.868 26.2241 142.554 30.8417 138.955 36.6655C135.355 42.4894 134.017 49.4063 133.018 56.1913C132.019 62.9763 131.265 69.8744 128.645 76.2071C128.344 76.9421 127.891 77.7714 127.119 77.9411C125.988 78.1861 125.14 76.9233 124.687 75.849C119.542 63.7867 116.79 50.6879 116.658 37.5702C116.583 29.9559 117.431 22.8128 122.162 16.857C126.892 10.9013 137.786 7.15068 142.554 11.6363Z" fill="#263238"/>
<path d="M126.497 42.0369L116.018 118.142C114.246 131.09 123.651 142.889 136.655 144.02C148.793 145.075 159.649 136.405 161.289 124.343C162.08 118.613 162.74 113.845 162.853 113.261C162.853 113.261 182.473 114.109 186.506 95.1297C188.466 85.9511 190.935 66.7458 192.971 49.3309C195.157 30.6344 182.605 13.3891 164.135 9.69504L162.306 9.33694C142.309 6.491 128.739 21.9457 126.497 42.0369Z" fill="#FFBE9D"/>
<path d="M162.947 112.978C162.947 112.978 150.734 111.546 139.558 100.972C139.558 100.972 142.686 115.843 162.024 117.916L162.947 112.978Z" fill="#EB996E"/>
<path d="M184.904 60.9408C184.659 62.392 183.246 63.3721 181.738 63.1648C180.23 62.9386 179.194 61.6004 179.42 60.1492C179.665 58.698 181.078 57.7179 182.586 57.9252C184.113 58.1326 185.149 59.4895 184.904 60.9408Z" fill="#263238"/>
<path d="M187.053 57.8122C186.638 58.0949 184.885 56.1724 181.964 55.5882C179.043 54.9662 176.612 56.0405 176.367 55.6259C176.235 55.4374 176.706 54.872 177.78 54.3631C178.836 53.8731 180.532 53.515 182.36 53.8919C184.188 54.2689 185.583 55.249 186.318 56.0971C187.072 56.9829 187.241 57.6991 187.053 57.8122Z" fill="#263238"/>
<path d="M156.03 56.1913C155.785 57.6425 154.372 58.6225 152.864 58.4152C151.356 58.1891 150.319 56.8509 150.546 55.3997C150.791 53.9484 152.204 52.9684 153.712 53.1757C155.239 53.4019 156.275 54.7589 156.03 56.1913Z" fill="#263238"/>
<path d="M158.198 52.6292C157.783 52.9119 156.03 50.9894 153.109 50.4052C150.188 49.7832 147.756 50.8575 147.511 50.4429C147.379 50.2544 147.851 49.689 148.925 49.1801C149.98 48.6901 151.677 48.332 153.505 48.7089C155.333 49.0859 156.728 50.066 157.463 50.9141C158.217 51.7999 158.386 52.4973 158.198 52.6292Z" fill="#263238"/>
<path d="M164.474 76.4332C164.493 76.2636 166.377 76.3202 169.393 76.5275C170.147 76.6029 170.901 76.5841 171.127 76.1129C171.41 75.604 171.259 74.737 171.07 73.7946C170.731 71.8534 170.373 69.799 169.996 67.6693C168.545 58.9618 167.659 51.8564 168.017 51.7999C168.375 51.7434 169.826 58.7545 171.278 67.462C171.617 69.6106 171.937 71.646 172.258 73.6062C172.371 74.5108 172.672 75.5663 172.05 76.6217C171.73 77.1306 171.108 77.4322 170.599 77.4699C170.09 77.5264 169.676 77.451 169.299 77.3945C166.302 76.9421 164.455 76.6029 164.474 76.4332Z" fill="#263238"/>
<path d="M155.465 76.7348C155.955 76.8102 155.314 79.9766 157.576 82.766C159.837 85.5742 163.286 85.8946 163.23 86.3281C163.23 86.5354 162.344 86.7993 160.912 86.5543C159.498 86.3281 157.538 85.4611 156.162 83.746C154.786 82.0309 154.428 80.0519 154.598 78.7326C154.749 77.3756 155.258 76.6594 155.465 76.7348Z" fill="#263238"/>
<path d="M161.231 41.302C160.779 42.037 157.933 41.0758 154.427 40.8119C150.922 40.4727 147.944 40.925 147.642 40.1146C147.51 39.7376 148.132 39.078 149.414 38.5314C150.677 37.9848 152.599 37.6079 154.691 37.7963C156.802 37.9848 158.611 38.6822 159.761 39.4361C160.93 40.2088 161.439 40.9627 161.231 41.302Z" fill="#263238"/>
<path d="M187.656 49.1424C187.015 49.7078 185.13 48.6147 182.718 48.087C180.324 47.4838 178.157 47.6346 177.818 46.843C177.686 46.4661 178.138 45.863 179.156 45.4106C180.155 44.9583 181.738 44.751 183.397 45.1279C185.055 45.5049 186.374 46.4095 187.072 47.2577C187.807 48.1246 187.958 48.8597 187.656 49.1424Z" fill="#263238"/>
<path d="M125.234 56.4363C124.932 56.229 112.927 49.9529 110.74 63.0517C108.554 76.1506 122.143 75.6417 122.237 75.2647C122.331 74.8878 125.234 56.4363 125.234 56.4363Z" fill="#FFBE9D"/>
<path d="M119.071 69.6294C119.014 69.5728 118.807 69.7424 118.392 69.8555C117.996 69.9686 117.318 69.9686 116.677 69.6105C115.377 68.8755 114.585 66.4819 114.905 64.1071C115.075 62.9009 115.509 61.8077 116.093 60.9407C116.658 60.0549 117.374 59.4895 118.11 59.4707C118.826 59.433 119.259 59.923 119.353 60.3188C119.467 60.7146 119.335 60.9596 119.41 60.9973C119.448 61.035 119.73 60.8277 119.712 60.2623C119.693 59.9984 119.598 59.6591 119.335 59.3576C119.071 59.056 118.618 58.8488 118.128 58.8111C117.111 58.7168 116.036 59.4895 115.414 60.4508C114.717 61.3931 114.208 62.6182 114.02 63.9752C113.662 66.6327 114.604 69.3278 116.394 70.176C117.28 70.5718 118.091 70.421 118.543 70.176C118.995 69.9498 119.108 69.6671 119.071 69.6294Z" fill="#EB996E"/>
<path d="M197.815 46.1457C188.994 46.7111 179.985 42.6966 174.501 35.7608C170.656 30.9171 168.206 24.5467 162.759 21.6065C159.102 19.6275 154.579 19.6087 150.621 20.8526C146.644 22.1154 143.158 24.5467 140.01 27.2984C141.763 37.7021 137.126 48.0116 132.622 57.5483C132.132 58.6037 131.548 59.7346 130.511 60.2434C128.739 61.1104 126.61 59.7345 125.554 58.0571C123.858 55.3808 123.651 52.0449 123.726 48.8785C123.877 41.66 125.14 34.4038 128.061 27.8073C131.001 21.2107 135.656 15.2927 141.744 11.4102C149.358 6.56641 158.97 5.19054 167.791 7.09412C176.611 8.99769 184.622 14.0488 190.615 20.7961C193.404 23.9247 195.817 27.5246 196.759 31.5956" fill="#263238"/>
</svg>
