<svg width="314" height="314" viewBox="0 0 314 314" fill="none" xmlns="http://www.w3.org/2000/svg">
<circle cx="157" cy="157" r="157" fill="#EC615B"/>
<path d="M156.398 161.621C140.318 156.999 128.599 151.335 121.242 144.629C113.951 137.858 110.305 129.525 110.305 119.629C110.305 108.431 114.764 99.1862 123.684 91.8945C132.668 84.5378 144.322 80.8594 158.645 80.8594C168.41 80.8594 177.102 82.7474 184.719 86.5234C192.401 90.2995 198.326 95.5078 202.492 102.148C206.724 108.789 208.84 116.048 208.84 123.926H189.992C189.992 115.332 187.258 108.594 181.789 103.711C176.32 98.763 168.605 96.2891 158.645 96.2891C149.4 96.2891 142.173 98.3398 136.965 102.441C131.822 106.478 129.25 112.109 129.25 119.336C129.25 125.13 131.691 130.046 136.574 134.082C141.522 138.053 149.888 141.699 161.672 145.02C173.521 148.34 182.766 152.018 189.406 156.055C196.112 160.026 201.06 164.681 204.25 170.02C207.505 175.358 209.133 181.641 209.133 188.867C209.133 200.391 204.641 209.635 195.656 216.602C186.672 223.503 174.66 226.953 159.621 226.953C149.855 226.953 140.741 225.098 132.277 221.387C123.814 217.611 117.271 212.467 112.648 205.957C108.091 199.447 105.812 192.057 105.812 183.789H124.66C124.66 192.383 127.818 199.186 134.133 204.199C140.513 209.147 149.009 211.621 159.621 211.621C169.517 211.621 177.102 209.603 182.375 205.566C187.648 201.53 190.285 196.029 190.285 189.062C190.285 182.096 187.844 176.725 182.961 172.949C178.078 169.108 169.224 165.332 156.398 161.621Z" fill="white"/>
</svg>
